<svg xmlns="http://www.w3.org/2000/svg" width="224" height="36" viewBox="0 0 224 36">
    <path fill="#333" fill-rule="evenodd" d="M125.56 5c-6.628 0-12.002 4.671-12.002 12s5.374 12 12.002 12c2.605 0 6.437-.63 8.84-1.896v-5.419h-1.25c-.37 1.24-1.057 2.46-1.97 3.389-.687.7-1.44 1.286-2.386 1.581-2.378.741-5.384.391-7.09-1.553-1.89-2.158-2.215-5.367-2.215-8.11 0-8.03 4.071-9.987 7.124-9.987 1.806.037 3.687.72 4.73 2.27.632.936 1.274 1.967 1.616 3.041h1.32l-.094-5.498C131.985 5.606 128.33 5 125.674 5h-.114zm18.503 22.657c-2.077 0-2.838-1.676-2.838-5.628 0-3.953.761-5.629 2.838-5.629 2.076 0 2.836 1.676 2.836 5.629 0 3.952-.76 5.628-2.836 5.628zm0-12.53c-3.862 0-6.994 3.09-6.994 6.902 0 3.811 3.132 6.901 6.994 6.901 3.862 0 6.992-3.09 6.992-6.901 0-3.812-3.13-6.902-6.992-6.902zm-78.01 12.53c-2.078 0-2.838-1.676-2.838-5.628 0-3.953.76-5.629 2.838-5.629 2.077 0 2.835 1.676 2.835 5.629 0 3.952-.758 5.628-2.835 5.628zm0-12.53c-3.863 0-6.993 3.09-6.993 6.902 0 3.811 3.13 6.901 6.993 6.901 3.861 0 6.992-3.09 6.992-6.901 0-3.812-3.131-6.902-6.992-6.902zm-12.95 1.525l-3.985-2.167c-.934-.51-1.855-1.059-2.663-1.757-1.135-.98-2.22-2.446-1.411-3.976.646-1.222 2.074-1.75 3.392-1.75 1.008 0 2.028.197 2.91.7 1.077.617 1.976 1.65 2.4 2.812.15.412.285.854.343 1.144h1.48v-5.15C53.14 5.347 50.304 5 47.639 5c-1.267 0-2.558.129-3.767.525-2.497.82-4.618 2.913-4.618 5.67 0 2.142 1.2 3.973 3.604 5.496.303.207 1.67.943 4.098 2.206 2.175 1.162 3.529 2.284 4.06 3.369.534 1.09.29 2.513-.522 3.398-.677.737-1.622 1.157-2.6 1.306-1.364.208-2.842.031-4.066-.622-1.152-.613-2.057-1.618-2.591-2.788a8.406 8.406 0 0 1-.732-2.571h-1.479v6.037C40.974 28.343 44.616 29 47.373 29c3.212 0 5.678-.837 7.4-2.515 1.188-1.187 1.782-2.633 1.782-4.337 0-2.142-1.15-3.973-3.453-5.496zm38.292 8.273c-.369.8-1.046 1.638-1.936 1.816-1.375.274-2.205-1.127-1.9-2.327.205-.803.807-1.37 1.59-1.612.587-.183 1.336-.294 2.246-.335v2.458zm5.35 2.088c-.166.462-.46.614-.83.626-.446-.04-.667-.316-.667-1.288v-6.34c0-2.528-1.173-4.085-3.52-4.67a8.634 8.634 0 0 0-1.971-.214c-2.752 0-4.481.598-5.188 1.79a1.853 1.853 0 0 0-.274.971c0 .789.374 1.285 1.123 1.486.182.061.373.091.577.091.867 0 1.456-.424 1.759-1.273.04-.122.1-.324.182-.608.21-.737.841-1.184 1.607-1.184 1.05 0 1.689.718 1.798 1.705.04.35.054.705.054 1.056v1.972c-5.2.103-7.807 1.476-7.828 4.127 0 1.8.788 2.953 2.366 3.458.466.141.98.212 1.548.212 1.719 0 2.983-.646 3.793-1.942.16-.262.292-.536.393-.819.426 1.74 1.446 2.66 3.065 2.761 1.326 0 1.9-.507 2.332-1.598l-.319-.319zm9.289.855c.263.04.395.293.395.758h-8.135v-.789c.262 0 .495-.02.697-.06.708-.121 1.062-.627 1.062-1.517v-9.889h-1.299v-.788h4.849l.212 2.337s.087-.239.384-.705c.815-1.28 2.35-1.876 3.894-1.876 1.222 0 2.245.705 2.245 2.003 0 1.075-.837 1.972-1.91 1.972-.898 0-1.436-.565-1.852-1.305-.258-.457-.558-.849-1.123-.607-.89.466-1.405 1.76-1.546 3.884v6.551h1.794c.12 0 .231.011.333.03zm-24.476 0c.262.04.395.293.395.758H74.41v-.789c.566 0 .56-.039.904-.12.668-.182 1.002-.688 1.002-1.517V8.522H74.41v-.789h5.758v20.104h1.057c.121 0 .232.011.333.03zm126.182-.395c-2.486-.31-3.315-3.114-3.315-5.246 0-3.398.534-4.935 1.606-5.583.323-.182.707-.273 1.154-.273.408 0 .844.049 1.165.326.337.29.569.821.625 1.253.12.93.364 1.527.727 1.79.283.202.668.303 1.152.303 1.034 0 1.67-.384 1.914-1.153.04-.162.059-.323.059-.485 0-.89-.536-1.669-1.606-2.336-1.053-.626-2.368-.94-3.946-.94-2.143 0-3.884.697-5.218 2.093-1.193 1.255-1.79 2.871-1.79 4.853 0 2.953 1.122 4.986 3.367 6.098 1.053.504 2.256.759 3.611.759 2.104 0 3.721-.638 4.855-1.912.383-.444.677-.93.88-1.456l-.789-.212c-.682.941-1.527 1.548-2.882 1.973-.523.16-1.058.211-1.569.148zm-23.905.396a2.256 2.256 0 0 0-.363-.03h-.541v-7.765c0-2.509-.89-4.075-2.67-4.703-.662-.22-1.363-.274-2.051-.224a5.047 5.047 0 0 0-3.243 1.485c-.327.324-.713.833-.713.833l-.153-1.881h-4.939v.789h1.3v9.889c0 .93.025 1.446-.844 1.546-.142.022-.295.03-.456.03v.79h6.179c0-.465-.133-.718-.396-.759a1.74 1.74 0 0 0-.333-.03h-.299l.032-7.765c.11-1.242.643-2.115 1.76-2.672.282-.14.576-.212.88-.212 1.152 0 1.83.678 2.032 2.033.04.262.062.536.062.819v6.22c0 .849-.224 1.345-.668 1.486-.081.024-.174.04-.267.055v.824h6.086c0-.464-.133-.717-.395-.758zm-16.59 0a2.256 2.256 0 0 0-.364-.03h-.54v-7.765c0-2.509-.89-4.075-2.671-4.703-.663-.22-1.363-.274-2.05-.224a5.053 5.053 0 0 0-3.244 1.485c-.325.324-.712.833-.712.833l-.152-1.881h-4.945v.789h1.304v9.889c0 .93.02 1.446-.85 1.546-.141.022-.294.03-.454.03v.79h6.183c0-.465-.133-.718-.395-.759a1.744 1.744 0 0 0-.334-.03h-.297l.03-7.765c.11-1.242.643-2.115 1.76-2.672.283-.14.577-.212.88-.212 1.153 0 1.831.678 2.033 2.033.04.262.06.536.06.819v6.22c0 .849-.222 1.345-.667 1.486a1.946 1.946 0 0 1-.232.047v.832h6.052c0-.464-.133-.717-.395-.758zm54.383-.312c.725-.147 1.441-.463 1.841-1.856l.402.4c.017.827-.519 1.815-1.035 2.166-.864.587-1.71.705-2.594.695a4.866 4.866 0 0 1-.46-.03c-2.427-.285-3.64-1.891-3.64-4.824v-7.17h-2.094v-1.203h2.093v-2.397l3.853-1.122v3.52H224v1.203h-4.006v8.293c0 .263.02.516.06.758.102.6.32 1.313.966 1.52.182.058.42.087.608.047zm-31.877-6.692l1.943.09c.808.041 1.415-.01 1.82-.15.978-.343.92-1.669.774-2.502-.156-.892-.628-1.787-1.62-1.893-1.003-.108-1.883.396-2.319 1.29-.47.962-.553 2.112-.598 3.165zm7.828 5.578c-1.032 1.66-2.73 2.489-5.098 2.489-1.334 0-2.528-.274-3.579-.82-2.204-1.153-3.306-3.195-3.306-6.128 0-1.8.484-3.306 1.455-4.52 1.274-1.556 3.055-2.336 5.34-2.336 1.254 0 2.377.212 3.369.638 1.758.788 2.638 2.043 2.638 3.761 0 .344-.06.956-.18 1.24-.529 1.131-2.418 1.647-5.674 1.546-.226-.007-2.793-.07-2.793-.09.022 1.172.058 1.9.305 2.734.513 1.739 1.505 2.61 3.124 2.61.505 0 1.001-.09 1.486-.272 1.214-.445 1.849-.924 2.672-2.034l.728.242a4.627 4.627 0 0 1-.487.94zM0 17h4.835l6.907 11.96H6.899L0 17zM6.643 5.04L13.55 17l6.907 11.96h-4.844L8.713 17 1.818 5.04h4.826zm8.714 0L22.264 17l6.907 11.96h-4.844L17.429 17 10.531 5.04h4.826zM30.978 17h-4.835L19.244 5.04h4.828L30.978 17z"/>
</svg>
